<svg width="1021" height="523" viewBox="0 0 1021 523" fill="none" xmlns="http://www.w3.org/2000/svg">
<path d="M34.0002 448.328C16.6033 448.328 2.50024 462.431 2.50024 479.828V488.157C2.50024 505.554 16.6033 519.657 34.0003 519.657H986.731C1004.13 519.657 1018.23 505.554 1018.23 488.157V479.828C1018.23 462.431 1004.13 448.328 986.731 448.328H34.0002ZM34.0017 300.171C16.6048 300.171 2.50173 314.274 2.50173 331.671V340C2.50173 357.397 16.6048 371.5 34.0017 371.5H986.733C1004.13 371.5 1018.23 357.397 1018.23 340V331.671C1018.23 314.274 1004.13 300.171 986.733 300.171H34.0017ZM34.0018 159.829C16.6048 159.829 2.50182 173.932 2.50182 191.329V199.657C2.50182 217.054 16.6049 231.157 34.0018 231.157H510.367H986.733C1004.13 231.157 1018.23 217.054 1018.23 199.657V191.329C1018.23 173.932 1004.13 159.829 986.733 159.829H34.0018ZM34 2.5C16.603 2.5 2.5 16.603 2.5 34V42.3286C2.5 59.7256 16.603 73.8286 34 73.8286H986.731C1004.13 73.8286 1018.23 59.7256 1018.23 42.3286V34C1018.23 16.603 1004.13 2.5 986.731 2.5H34Z" fill="#FB8500" stroke="black" stroke-width="5"/>
</svg>
