<svg width="1021" height="413" viewBox="0 0 1021 413" fill="none" xmlns="http://www.w3.org/2000/svg">
<path d="M34.0002 338.328C16.6033 338.328 2.50024 352.431 2.50024 369.828V378.157C2.50024 395.554 16.6033 409.657 34.0003 409.657H986.731C1004.13 409.657 1018.23 395.554 1018.23 378.157V369.828C1018.23 352.431 1004.13 338.328 986.731 338.328H34.0002ZM34.0018 171.671C16.6049 171.671 2.50182 185.774 2.50182 203.171V211.5C2.50182 228.897 16.6049 243 34.0018 243H510.367H986.733C1004.13 243 1018.23 228.897 1018.23 211.5V203.171C1018.23 185.774 1004.13 171.671 986.733 171.671H34.0018ZM34.0021 2.6714C16.6051 2.6714 2.50208 16.7744 2.50208 34.1714V42.5C2.50208 59.897 16.6051 74 34.0021 74H986.733C1004.13 74 1018.23 59.897 1018.23 42.5V34.1714C1018.23 16.7744 1004.13 2.6714 986.733 2.6714H34.0021Z" fill="#8ECAE6" stroke="black" stroke-width="5"/>
</svg>
