<svg width="578" height="91" viewBox="0 0 578 91" fill="none" xmlns="http://www.w3.org/2000/svg">
<g filter="url(#filter0_d_42_106)">
<path d="M4 23C4 10.2975 14.2975 0 27 0H551C563.703 0 574 10.2975 574 23V60C574 72.7026 563.703 83 551 83H27C14.2974 83 4 72.7026 4 60V23Z" fill="#D9D9D9"/>
<path d="M4.5 23C4.5 10.5736 14.5736 0.5 27 0.5H551C563.426 0.5 573.5 10.5736 573.5 23V60C573.5 72.4264 563.426 82.5 551 82.5H27C14.5736 82.5 4.5 72.4264 4.5 60V23Z" stroke="black"/>
</g>
<defs>
<filter id="filter0_d_42_106" x="0" y="0" width="578" height="91" filterUnits="userSpaceOnUse" color-interpolation-filters="sRGB">
<feFlood flood-opacity="0" result="BackgroundImageFix"/>
<feColorMatrix in="SourceAlpha" type="matrix" values="0 0 0 0 0 0 0 0 0 0 0 0 0 0 0 0 0 0 127 0" result="hardAlpha"/>
<feOffset dy="4"/>
<feGaussianBlur stdDeviation="2"/>
<feComposite in2="hardAlpha" operator="out"/>
<feColorMatrix type="matrix" values="0 0 0 0 0 0 0 0 0 0 0 0 0 0 0 0 0 0 0.25 0"/>
<feBlend mode="normal" in2="BackgroundImageFix" result="effect1_dropShadow_42_106"/>
<feBlend mode="normal" in="SourceGraphic" in2="effect1_dropShadow_42_106" result="shape"/>
</filter>
</defs>
</svg>
