<svg width="808" height="86" viewBox="0 0 808 86" fill="none" xmlns="http://www.w3.org/2000/svg">
<g filter="url(#filter0_d_51_223)">
<path d="M4 15.1803C4 6.89603 10.7157 0.180298 19 0.180298H789C797.284 0.180298 804 6.89603 804 15.1803V62.3258C804 70.6101 797.284 77.3258 789 77.3258H19C10.7157 77.3258 4 70.6101 4 62.3258V15.1803Z" fill="#BBBBBB"/>
<path d="M4.5 15.1803C4.5 7.17217 10.9919 0.680298 19 0.680298H789C797.008 0.680298 803.5 7.17217 803.5 15.1803V62.3258C803.5 70.3339 797.008 76.8258 789 76.8258H19C10.9919 76.8258 4.5 70.3339 4.5 62.3258V15.1803Z" stroke="black"/>
</g>
<defs>
<filter id="filter0_d_51_223" x="0" y="0.180298" width="808" height="85.1455" filterUnits="userSpaceOnUse" color-interpolation-filters="sRGB">
<feFlood flood-opacity="0" result="BackgroundImageFix"/>
<feColorMatrix in="SourceAlpha" type="matrix" values="0 0 0 0 0 0 0 0 0 0 0 0 0 0 0 0 0 0 127 0" result="hardAlpha"/>
<feOffset dy="4"/>
<feGaussianBlur stdDeviation="2"/>
<feComposite in2="hardAlpha" operator="out"/>
<feColorMatrix type="matrix" values="0 0 0 0 0 0 0 0 0 0 0 0 0 0 0 0 0 0 0.25 0"/>
<feBlend mode="normal" in2="BackgroundImageFix" result="effect1_dropShadow_51_223"/>
<feBlend mode="normal" in="SourceGraphic" in2="effect1_dropShadow_51_223" result="shape"/>
</filter>
</defs>
</svg>
