<svg width="126" height="38" viewBox="0 0 126 38" fill="none" xmlns="http://www.w3.org/2000/svg">
<path d="M118.297 16.4263C119.519 16.4263 129.146 16.4263 124.398 16.4263C117.257 16.4263 110.117 16.4263 102.976 16.4263C90.3308 16.4263 77.9629 18.8667 65.2851 18.8667C57.393 18.8667 79.0157 20.0869 71.3184 20.0869C60.8354 20.0869 50.5751 21.3071 40.2029 21.3071C36.3163 21.3071 28.5431 21.3071 28.5431 21.3071C28.5431 21.3071 34.6893 21.3071 37.7625 21.3071C42.4909 21.3071 42.4909 21.3071 37.7625 21.3071C32.2941 21.3071 26.8257 21.3071 21.3573 21.3071C8.25623 21.3071 24.2922 22.1991 28.6108 21.2393C34.0715 20.0259 41.5071 20.0449 46.304 17.6465" stroke="#305496" stroke-width="32" stroke-linecap="round"/>
</svg>
